# xmcd
#
# Track frame offsets: 
#        150
#        22687
#        39857
#        60543
#        72714
#        95070
#        109020
#        124889
#        144736
#        159562
#
# Disc length: 2322 seconds
#
# Revision: 0
# Processed by: cddbd v1.5.2PL0 Copyright (c) Steve Scherf et al.
# Submitted via: ExactAudioCopy v1.0b3
#
DISCID=8709100a
DTITLE=Magda Bożyk - Yearning
DYEAR=2014
DGENRE=Vocal
TTITLE0=I Thought I Could
TTITLE1=On The Cold Ground
TTITLE2=Is That All
TTITLE3=Outside
TTITLE4=No Signs
TTITLE5=I Didn't Know
TTITLE6=I Need To Drink
TTITLE7=Words
TTITLE8=Journey
TTITLE9=You Are My Body
EXTD=
EXTT0=
EXTT1=
EXTT2=
EXTT3=
EXTT4=
EXTT5=
EXTT6=
EXTT7=
EXTT8=
EXTT9=
PLAYORDER=
